<svg width="25" height="24" viewBox="0 0 25 24" fill="none" xmlns="http://www.w3.org/2000/svg">
<circle cx="12.5" cy="12" r="10.5" stroke="white" stroke-opacity="0.2" stroke-width="3"/>
<path d="M20.9853 3.51472C22.5139 5.04334 23.5875 6.94192 24.119 9C24.3699 9.97182 24.5 10.9792 24.5 12C24.5 12 24.0635 13.0223 23.0379 13.0223C22.0122 13.0223 21.6024 12 21.6024 12C21.6024 6.97289 17.5272 2.89762 12.5 2.89762C7.47294 2.89762 3.39766 6.97289 3.39766 12C3.39766 12 3.1912 13.0258 1.97341 13.0258C0.755621 13.0258 0.5 12 0.5 12C0.5 10.9792 0.630064 9.97182 0.881016 9C1.41247 6.94192 2.48609 5.04334 4.01472 3.51472C6.26516 1.26428 9.3174 0 12.5 0C15.6826 0 18.7348 1.26428 20.9853 3.51472Z" fill="white"/>
</svg>
